# xmcd
#
# Track frame offsets: 
#        150
#        14043
#        26134
#        41274
#        55240
#        70146
#        83671
#        100784
#        115128
#        128697
#        146165
#        160094
#        175360
#        190940
#        208356
#        224187
#        236672
#        249058
#        265304
#        280992
#        297812
#        310478
#        327046
#
# Disc length: 4540 seconds
#
# Revision: 0
# Processed by: cddbd v1.5.2PL0 Copyright (c) Steve Scherf et al.
# Submitted via: ExactAudioCopy v1.1
#
DISCID=5d11ba17
DTITLE=Various Artist - MNM Party 2017 Volume 2 - CD 1
DYEAR=2017
DGENRE=Pop
TTITLE0=Dimitri Vegas and Like Mike Vs. David Guetta Feat. Kiiara - Comp
TTITLE0=licated
TTITLE1=Lost Frequencies and Netsky - Here With You
TTITLE2=Axwell Λ Ingrosso - More Than You Know
TTITLE3=J Balvin and Willy William - Mi Gente
TTITLE4=Lil Kleine Feat. Boef - Krantenwijk
TTITLE5=Jonas Blue Feat. William Singe - Mama
TTITLE6=Katy Perry Feat. Migos - Bon Appétit
TTITLE7=Robin Schulz Feat. James Blunt - OK
TTITLE8=Regi - Where Did You Go (Summer Love)
TTITLE9=French Montana Feat. Swae Lee - Unforgettable
TTITLE10=Disciples - On My Mind
TTITLE11=Riton Feat. Kah-Lo, Mr Eazi and Davido - Money
TTITLE12=The Chainsmokers - Honest
TTITLE13=Rudimental Feat. James Arthur - Sun Comes Up
TTITLE14=Sandro Cavazza and Lost Frequencies - So Much Better (Remix)
TTITLE15=Jax Jones Feat. Demi Lovato and Stefflon Don - Instruction
TTITLE16=Sara Gold Feat. Sofia - Lonely Place
TTITLE17=Jason Derulo Feat. Nicki Minaj and Ty Dolla $Ign - Swalla
TTITLE18=Sylver - Turn Your Love Around
TTITLE19=Cheat Codes Feat. Demi Lovato - No Promises
TTITLE20=Martin Solveig Feat. Alma - All Stars
TTITLE21=Martin Garrix and Troye Sivan - There For You
TTITLE22=Jebroer, DJ Paul Elstak and Dr Phunk - Engeltje
EXTD=
EXTT0=
EXTT1=
EXTT2=
EXTT3=
EXTT4=
EXTT5=
EXTT6=
EXTT7=
EXTT8=
EXTT9=
EXTT10=
EXTT11=
EXTT12=
EXTT13=
EXTT14=
EXTT15=
EXTT16=
EXTT17=
EXTT18=
EXTT19=
EXTT20=
EXTT21=
EXTT22=
PLAYORDER=
